<?xml version="1.0" encoding="UTF-8" standalone="no"?>
<svg width="485px" height="103px" viewBox="0 0 485 103" version="1.1" xmlns="http://www.w3.org/2000/svg" xmlns:xlink="http://www.w3.org/1999/xlink">
    <!-- Generator: Sketch 39.1 (31720) - http://www.bohemiancoding.com/sketch -->
    <title>Sky News</title>
    <desc>Created with Sketch.</desc>
    <defs>
        <path d="M9.42331104,102.94 C2.50693201,102.367331 0,97.725625 0,90.32 L0,13.38 C0,5.459 2.868,0.7 10.932,0.7 L492.434,0.7 C492.671,0.7 492.902,0.704 493.13,0.712 C492.902,0.704 492.671,0.7 492.434,0.7 L188.291,0.7 L188.291,3.638 L18.697,3.638 C15.484,3.638 13.072,2.345 10.661,2.345 C3.541,2.345 0.805,5.188 0.805,13.597 L0.781,86.219 C0.781,90.745 1.032,93.779 1.712,93.779 C1.96,92.357 2.168,85.375 9.836,79.011 C34.411,60.043 106.52,46.353 188.291,40.754 L188.291,102.94 L9.42331104,102.94 L9.42331104,102.94 L9.42331104,102.94 Z" id="path-1"></path>
        <polygon id="path-3" points="0.291 102.94 315.366 102.94 315.366 0.7 157.8285 0.7 0.291 0.7"></polygon>
    </defs>
    <g id="Page-1" stroke="none" stroke-width="1" fill="none" fill-rule="evenodd">
        <g id="Sky-News" transform="translate(-19.000000, 0.000000)">
            <g id="Group-3">
                <mask id="mask-2" fill="white">
                    <use xlink:href="#path-1"></use>
                </mask>
                <g id="Clip-2"></g>
                <polygon id="Fill-1" mask="url(#mask-2)" points="0 102.94 503.366 102.94 503.366 0.7 0 0.7"></polygon>
            </g>
            <g id="Group-6" transform="translate(188.000000, 0.000000)">
                <mask id="mask-4" fill="white">
                    <use xlink:href="#path-3"></use>
                </mask>
                <g id="Clip-5"></g>
                <path d="M304.434,0.7 L0.291,0.7 L0.291,103 L304.434,103 C312.498,103 315.366,98.241 315.366,90.32 L315.366,13.38 C315.366,5.459 312.498,0.7 304.434,0.7" id="Fill-4" fill="#A12829" mask="url(#mask-4)"></path>
            </g>
            <path d="M1.712,93.779 C1.032,93.779 0.781,90.745 0.781,86.219 L0.805,13.597 C0.805,5.188 3.541,2.345 10.661,2.345 C13.072,2.345 15.484,3.638 18.697,3.638 L188.291,3.638 L188.291,40.754 C106.52,46.353 34.411,60.043 9.836,79.011 C2.168,85.375 1.96,92.357 1.712,93.779" id="Fill-7"></path>
            <path d="M501.287,93.779 C501.04,92.357 500.099,85.878 493.164,79.011 C462.322,50.159 368.187,37.956 270.357,37.956 C242.855,37.956 215.046,38.922 188.291,40.754 L188.291,3.638 L484.303,3.638 C487.515,3.638 489.927,2.345 492.338,2.345 C499.458,2.345 502.194,5.188 502.194,13.597 L502.218,86.219 C502.218,90.745 501.967,93.779 501.287,93.779" id="Fill-9" fill="#C37373"></path>
            <path d="M268.604,14.594 C267.499,14.48 266.399,14.422 265.335,14.422 C262.88,14.422 261.129,14.997 260.126,16.131 C259.146,17.238 258.649,18.573 258.649,20.11 L259.286,67.57 L228.088,19.355 C227.06,17.772 225.83,16.544 224.433,15.705 C222.996,14.841 220.765,14.422 217.616,14.422 C216.546,14.422 215.342,14.519 214.038,14.71 C212.703,14.907 211.582,15.21 210.704,15.61 L210.265,15.81 L210.265,89.007 L210.835,89.148 C211.481,89.309 212.347,89.425 213.484,89.505 C214.597,89.58 215.725,89.618 216.838,89.618 C219.395,89.618 221.132,89.081 222.151,87.976 C223.137,86.903 223.637,85.545 223.637,83.93 L222.999,34.694 L255.297,85.019 C256.173,86.376 257.308,87.49 258.669,88.33 C260.072,89.196 262.142,89.618 264.999,89.618 C267.396,89.618 269.522,89.261 271.32,88.558 L271.796,88.372 L271.796,15.146 L271.228,15.005 C270.595,14.847 269.712,14.709 268.604,14.594" id="Fill-10" fill="#FFFFFF"></path>
            <path d="M329.459,76.68 L329.378,76.022 L296.873,76.022 L296.873,57.922 L320.987,57.922 C322.451,57.922 323.699,57.438 324.698,56.482 C325.72,55.503 326.217,53.897 326.217,51.572 C326.217,50.505 326.159,49.477 326.044,48.515 L325.683,45.558 L296.873,45.558 L296.873,27.57 L323.451,27.57 C324.982,27.57 326.302,27.07 327.375,26.084 C328.464,25.082 329.017,23.37 329.017,20.996 C329.017,19.936 328.96,18.855 328.845,17.78 C328.728,16.692 328.593,15.852 328.434,15.214 L328.293,14.646 L290.075,14.646 C287.03,14.646 285.09,15.278 284.147,16.581 C283.272,17.79 282.829,19.351 282.829,21.22 L282.829,82.372 C282.829,84.243 283.272,85.804 284.147,87.012 C285.088,88.313 287.028,88.946 290.075,88.946 L324.459,88.946 C326.009,88.946 327.322,88.397 328.36,87.316 C329.405,86.227 329.913,84.5 329.913,82.036 C329.913,80.964 329.854,79.936 329.74,78.979 C329.628,78.045 329.533,77.279 329.459,76.68" id="Fill-11" fill="#FFFFFF"></path>
            <path d="M423.873,14.837 C422.768,14.561 421.54,14.422 420.219,14.422 C418.379,14.422 416.824,14.775 415.593,15.472 C414.273,16.22 413.432,17.584 413.095,19.523 L407.863,49.42 L406.636,56.027 C406.192,58.419 405.745,60.866 405.3,63.368 C404.853,65.874 404.425,68.34 404.018,70.767 C403.883,71.562 403.754,72.345 403.629,73.112 C403.077,70.234 402.465,67.19 401.803,64.018 C400.794,59.194 399.719,54.383 398.609,49.718 L390.45,15.472 L390.034,15.349 C387.957,14.734 385.623,14.422 383.099,14.422 C380.532,14.422 378.368,14.843 376.665,15.674 C374.854,16.558 373.683,18.103 373.185,20.259 L366.013,49.712 C364.749,54.841 363.616,59.747 362.645,64.296 C362.04,67.135 361.502,69.93 361.038,72.65 C360.606,69.916 360.133,67.073 359.626,64.155 C358.798,59.413 357.972,54.763 357.147,50.203 L351.514,19.84 C351.095,17.758 350.18,16.307 348.794,15.526 C347.491,14.794 345.86,14.422 343.947,14.422 C342.47,14.422 341.141,14.582 339.996,14.897 C338.88,15.205 337.882,15.557 337.028,15.945 L336.479,16.195 L351.894,88.537 L352.288,88.678 C353.38,89.069 354.774,89.347 356.433,89.503 C358.053,89.653 359.485,89.73 360.687,89.73 C363.176,89.73 365.188,89.344 366.666,88.583 C368.234,87.775 369.358,86.087 370.008,83.557 L378.207,49.734 C378.876,46.991 379.614,43.763 380.401,40.139 C380.949,37.612 381.489,35.094 382.019,32.585 C382.173,33.281 382.322,33.985 382.463,34.695 C382.836,36.559 383.189,38.385 383.524,40.174 C383.861,41.971 384.196,43.676 384.533,45.285 C384.87,46.895 385.188,48.372 385.491,49.734 L394.977,88.655 L395.359,88.791 C396.47,89.185 397.824,89.444 399.382,89.56 C400.897,89.673 402.241,89.73 403.377,89.73 C405.944,89.73 408.087,89.371 409.75,88.662 C411.554,87.892 412.763,86.17 413.342,83.531 L427.241,15.939 L426.657,15.707 C425.879,15.398 424.943,15.106 423.873,14.837" id="Fill-12" fill="#FFFFFF"></path>
            <path d="M465.335,46.034 L455.473,43.233 C451.254,42.07 448.307,40.869 446.711,39.661 C445.215,38.532 444.489,36.897 444.489,34.66 C444.489,33.722 444.693,32.789 445.096,31.884 C445.491,30.995 446.17,30.168 447.113,29.426 C448.075,28.67 449.382,28.055 450.998,27.598 C452.641,27.133 454.758,26.898 457.29,26.898 C459.557,26.898 461.632,27.027 463.458,27.283 C465.323,27.545 466.99,27.807 468.413,28.062 C469.857,28.322 471.165,28.584 472.299,28.839 C473.503,29.112 474.632,29.25 475.659,29.25 C477.871,29.25 479.5,28.412 480.5,26.76 C481.426,25.228 481.896,23.101 481.896,20.436 L481.896,18.336 L481.394,18.16 C477.117,16.66 472.95,15.556 469.008,14.881 C465.065,14.205 461.311,13.862 457.85,13.862 C452.708,13.862 448.36,14.519 444.928,15.814 C441.488,17.115 438.689,18.79 436.609,20.792 C434.515,22.81 433.019,25.115 432.164,27.643 C431.32,30.133 430.892,32.607 430.892,34.996 C430.892,39.779 432.398,44.083 435.369,47.785 C438.33,51.478 443.604,54.39 451.043,56.439 L460.328,59.012 C462.077,59.523 463.66,60.044 465.032,60.561 C466.343,61.058 467.471,61.648 468.383,62.313 C469.257,62.954 469.936,63.733 470.4,64.629 C470.865,65.527 471.1,66.636 471.1,67.924 C471.1,70.554 470.106,72.675 468.06,74.408 C466.007,76.148 462.46,77.03 457.514,77.03 C455.095,77.03 452.852,76.882 450.846,76.59 C448.82,76.296 446.955,75.96 445.3,75.591 L440.764,74.584 C439.37,74.275 438.146,74.118 437.129,74.118 C434.839,74.118 433.153,75.015 432.115,76.785 C431.155,78.424 430.669,80.568 430.669,83.156 C430.669,83.506 430.69,83.803 430.734,84.06 C430.764,84.249 430.78,84.472 430.78,84.724 L430.78,85.264 L431.293,85.435 C435.79,86.935 440.254,88.075 444.562,88.823 C448.884,89.573 452.941,89.954 456.618,89.954 C461.593,89.954 465.926,89.396 469.495,88.297 C473.083,87.191 476.11,85.617 478.493,83.619 C480.891,81.607 482.677,79.171 483.801,76.38 C484.916,73.613 485.48,70.505 485.48,67.14 C485.48,56.65 478.697,49.548 465.335,46.034" id="Fill-13" fill="#FFFFFF"></path>
            <path d="M65.101,61.647 C65.101,70.404 59.373,76.804 47.747,78.069 C39.321,78.972 27.123,77.906 21.333,77.24 C21.117,76.295 20.949,75.119 20.949,74.195 C20.949,66.53 25.094,64.781 28.971,64.781 C33.001,64.781 39.35,65.48 44.075,65.48 C49.262,65.48 50.848,63.716 50.848,62.041 C50.848,59.842 48.75,58.928 44.721,58.156 L33.691,56.035 C24.509,54.276 19.61,47.924 19.61,41.185 C19.61,32.993 25.409,26.134 36.812,24.872 C45.435,23.94 55.927,24.992 61.686,25.699 C61.899,26.688 62.009,27.623 62.009,28.652 C62.009,36.29 57.98,37.938 54.097,37.938 C51.113,37.938 46.485,37.379 41.203,37.379 C35.822,37.379 33.591,38.868 33.591,40.682 C33.591,42.59 35.717,43.383 39.085,43.971 L49.629,45.927 C60.46,47.924 65.101,54.077 65.101,61.647 L65.101,61.647 Z M84.025,71.05 C84.025,75.748 82.179,78.457 73.013,78.457 C71.798,78.457 70.734,78.368 69.716,78.221 L69.716,15.905 C69.716,11.172 71.325,6.235 80.588,6.235 C81.754,6.235 82.93,6.355 84.025,6.583 L84.025,71.05 L84.025,71.05 Z M121.509,95.158 C122.709,95.772 125.181,96.517 128.289,96.601 C133.607,96.717 136.516,94.674 138.668,89.907 L167.238,26.179 C166.059,25.544 163.453,24.84 161.311,24.79 C157.641,24.724 152.712,25.475 149.556,32.993 L140.306,54.83 L122.162,25.276 C120.992,24.916 118.136,24.402 116.036,24.402 C109.641,24.402 106.056,26.764 102.341,30.793 L84.702,50.087 L98.889,72.42 C101.512,76.489 104.969,78.563 110.581,78.563 C114.251,78.563 117.306,77.728 118.721,77.05 L101.638,51.289 L113.744,38.461 L133.607,69.632 L121.509,95.158 L121.509,95.158 Z" id="Fill-14" fill="#0A0A08"></path>
        </g>
    </g>
</svg>